<?xml version="1.0" encoding="UTF-8" standalone="no"?>
<!DOCTYPE svg PUBLIC "-//W3C//DTD SVG 1.1//EN" "http://www.w3.org/Graphics/SVG/1.1/DTD/svg11.dtd">
<svg width="100%" height="100%" viewBox="0 0 75 32" version="1.1" xmlns="http://www.w3.org/2000/svg" xmlns:xlink="http://www.w3.org/1999/xlink" xml:space="preserve" style="fill-rule:evenodd;clip-rule:evenodd;stroke-linejoin:round;stroke-miterlimit:1.41421;">
    <g id="Right.-Arm" transform="matrix(0.967282,0.175753,-0.174473,0.960234,-65.3146,-160.495)">
        <g transform="matrix(0.18477,0.982782,-0.982782,0.18477,273.848,-60.1723)">
            <path d="M177.752,149.917C177.854,149.435 177.975,148.959 178.128,148.491C178.443,147.529 178.875,146.605 179.416,145.749C179.875,145.023 180.411,144.346 181.013,143.733C181.441,143.296 181.901,142.891 182.387,142.521C185.17,140.406 188.74,139.474 192.206,139.64C192.776,139.667 193.344,139.724 193.908,139.81C194.68,139.928 195.443,140.102 196.19,140.332C197.403,140.706 198.572,141.23 199.649,141.904C200.96,142.723 202.131,143.767 203.071,144.996C203.67,145.78 204.174,146.637 204.567,147.543C205.026,148.602 205.333,149.725 205.489,150.869C205.566,151.432 205.603,151.999 205.615,152.567C205.727,169.538 205.616,186.509 205.616,203.481C205.613,203.769 205.603,204.056 205.578,204.343C205.527,204.921 205.424,205.495 205.27,206.054C205.118,206.601 204.917,207.135 204.67,207.646C204.477,208.044 204.257,208.428 204.011,208.796C203.801,209.11 203.573,209.411 203.33,209.699C202.05,211.211 200.352,212.319 198.528,213.064C197.357,213.541 196.129,213.875 194.883,214.087C193.926,214.25 192.957,214.34 191.987,214.362C191.26,214.379 190.531,214.357 189.805,214.296C189.273,214.251 188.743,214.185 188.217,214.098C187.786,214.026 187.357,213.939 186.932,213.837C184.523,213.257 182.181,212.167 180.401,210.412C180.137,210.151 179.887,209.877 179.652,209.59C179.342,209.211 179.06,208.81 178.809,208.389C178.464,207.809 178.181,207.192 177.967,206.552C177.746,205.893 177.599,205.21 177.526,204.519C177.495,204.226 177.48,203.934 177.473,203.64C177.466,202.912 177.471,202.185 177.471,201.457C177.414,201.424 177.359,201.387 177.303,201.352L177.142,201.246C176.882,201.064 176.629,200.874 176.391,200.663C175.794,200.136 175.283,199.513 174.881,198.826C173.933,197.203 173.614,195.241 174.011,193.403C174.126,192.869 174.301,192.347 174.531,191.852C174.799,191.278 175.141,190.74 175.549,190.256C176.126,189.569 176.83,188.998 177.614,188.562L177.471,152.755C177.474,152.369 177.486,151.984 177.516,151.6C177.546,151.221 177.593,150.845 177.651,150.469C177.682,150.285 177.716,150.101 177.752,149.917ZM185.89,151.724C185.837,152.038 185.811,152.353 185.805,152.671L185.805,152.765L185.96,191.69L185.949,192.016C185.936,192.124 185.928,192.232 185.912,192.34C185.879,192.554 185.829,192.766 185.763,192.974C185.564,193.595 185.219,194.167 184.76,194.632C184.557,194.839 184.494,194.878 184.268,195.059L184.18,195.119L184.364,195.265L184.601,195.487C184.674,195.567 184.75,195.644 184.82,195.727C184.96,195.893 185.087,196.069 185.199,196.254C185.481,196.717 185.67,197.235 185.754,197.77C185.799,198.055 185.793,198.129 185.805,198.417C185.805,200.131 185.733,201.847 185.807,203.559C185.816,203.697 185.839,203.834 185.89,203.963C185.977,204.183 186.134,204.369 186.305,204.528C186.609,204.811 186.973,205.027 187.346,205.205C187.503,205.28 187.664,205.348 187.826,205.41C188.761,205.769 189.764,205.949 190.76,206.011C191.532,206.059 192.309,206.034 193.075,205.933C193.701,205.851 194.322,205.718 194.921,205.517C195.097,205.458 195.271,205.394 195.441,205.322C195.578,205.265 195.713,205.203 195.845,205.136C196.192,204.961 196.529,204.752 196.81,204.483C196.975,204.325 197.126,204.142 197.207,203.927C197.259,203.788 197.278,203.642 197.282,203.494C197.43,186.529 197.618,169.559 197.28,152.597C197.262,152.058 197.18,151.523 196.986,151.018C196.907,150.81 196.809,150.609 196.694,150.417C196.113,149.446 195.122,148.793 194.075,148.41C193.917,148.353 193.757,148.301 193.595,148.254C193.38,148.193 193.163,148.141 192.944,148.099C192.67,148.046 192.393,148.008 192.116,147.984C191.759,147.954 191.4,147.947 191.042,147.963C190.593,147.984 190.145,148.043 189.707,148.142C188.559,148.4 187.416,148.949 186.678,149.893C186.578,150.02 186.486,150.154 186.403,150.294C186.201,150.635 186.06,151.004 185.961,151.388C185.934,151.499 185.911,151.611 185.89,151.724Z" style="fill-rule:nonzero;"/>
        </g>
        <g transform="matrix(0.18477,0.982782,-0.982782,0.18477,273.848,-60.1723)">
            <path d="M201.449,152.76C201.449,140.995 181.638,140.6 181.638,152.76L181.793,191.707C176.548,191.707 177.003,198.417 181.638,198.417L181.638,203.462C181.638,212.48 201.449,212.414 201.449,203.462L201.449,152.76Z" style="fill:rgb(166,166,166);"/>
        </g>
        <g transform="matrix(0.18477,0.982782,-0.982782,0.18477,273.848,-60.1723)">
            <path d="M180.507,150.48C180.577,150.15 180.658,149.823 180.759,149.5C180.978,148.796 181.277,148.116 181.653,147.481C181.924,147.023 182.234,146.589 182.58,146.184C183.308,145.33 184.189,144.612 185.159,144.048C186.008,143.554 186.924,143.177 187.87,142.913C188.572,142.717 189.29,142.582 190.014,142.507C190.569,142.449 191.128,142.425 191.686,142.436C194.416,142.489 197.187,143.359 199.305,145.115C199.57,145.336 199.825,145.569 200.066,145.816C200.402,146.159 200.712,146.526 200.993,146.915C201.386,147.46 201.719,148.046 201.986,148.662C202.344,149.486 202.581,150.36 202.703,151.25C202.764,151.699 202.793,152.151 202.802,152.605C202.915,169.599 202.95,186.596 202.802,203.591C202.786,204.211 202.702,204.825 202.525,205.421C202.413,205.802 202.265,206.172 202.086,206.526C201.963,206.77 201.824,207.006 201.672,207.233C200.691,208.702 199.187,209.738 197.576,210.414C196.562,210.839 195.494,211.13 194.412,211.314C193.589,211.454 192.757,211.531 191.923,211.551C191.254,211.566 190.583,211.544 189.916,211.483C189.42,211.437 188.926,211.37 188.435,211.281C188.031,211.207 187.63,211.118 187.233,211.012C186.919,210.928 186.609,210.834 186.301,210.729C184.46,210.099 182.694,209.045 181.546,207.44C181.365,207.186 181.2,206.92 181.054,206.643C180.85,206.256 180.685,205.849 180.561,205.429C180.374,204.791 180.29,204.132 180.284,203.468L180.284,199.61C180.171,199.581 180.172,199.581 180.06,199.549C179.939,199.512 179.939,199.512 179.818,199.471C179.584,199.385 179.356,199.288 179.136,199.17C178.648,198.907 178.208,198.559 177.842,198.144C177.493,197.748 177.213,197.294 177.014,196.806C176.581,195.749 176.535,194.54 176.911,193.459C177.024,193.136 177.173,192.826 177.356,192.537C177.633,192.101 177.986,191.717 178.396,191.402C178.993,190.944 179.699,190.642 180.434,190.488L180.284,152.758C180.286,152.445 180.296,152.132 180.32,151.82C180.344,151.517 180.381,151.217 180.428,150.917C180.452,150.771 180.479,150.626 180.507,150.48ZM183.12,151.238C183.035,151.743 182.995,152.25 182.992,152.761L183.148,191.701C183.144,191.76 183.144,191.819 183.137,191.877C183.122,191.994 183.092,192.109 183.047,192.218C182.89,192.603 182.556,192.9 182.156,193.011C181.975,193.062 181.792,193.059 181.607,193.065C181.52,193.069 181.433,193.075 181.346,193.083C180.933,193.131 180.522,193.235 180.169,193.463C180.009,193.567 179.865,193.695 179.746,193.844C179.672,193.937 179.608,194.037 179.555,194.143C179.187,194.885 179.368,195.836 179.94,196.424C180.229,196.721 180.607,196.911 181.01,196.999C181.222,197.045 181.437,197.06 181.653,197.063L181.829,197.076C181.886,197.088 181.944,197.097 182.001,197.112C182.114,197.144 182.223,197.19 182.324,197.249C182.629,197.429 182.856,197.727 182.947,198.069C182.987,198.221 182.982,198.261 182.992,198.417C182.992,200.126 182.978,201.835 182.993,203.544C183.003,203.924 183.052,204.3 183.16,204.664C183.219,204.868 183.296,205.066 183.388,205.257C183.887,206.293 184.815,207.052 185.814,207.582C185.974,207.667 186.136,207.746 186.301,207.82C187.451,208.341 188.701,208.632 189.953,208.765C191.147,208.891 192.358,208.873 193.546,208.708C194.505,208.574 195.454,208.344 196.355,207.987C196.556,207.907 196.755,207.821 196.95,207.727C198.074,207.189 199.146,206.386 199.7,205.241C199.792,205.051 199.868,204.854 199.928,204.652C200.035,204.291 200.084,203.919 200.094,203.543C200.242,186.576 200.207,169.608 200.094,152.64C200.087,152.261 200.06,151.884 200.004,151.509C199.902,150.837 199.711,150.179 199.422,149.563C199.26,149.219 199.069,148.888 198.851,148.576C197.867,147.17 196.37,146.203 194.756,145.669C194.175,145.477 193.576,145.339 192.97,145.252C192.527,145.189 192.081,145.153 191.633,145.144C191.29,145.137 190.945,145.147 190.602,145.173C188.622,145.322 186.62,146.024 185.156,147.401C184.952,147.593 184.759,147.798 184.58,148.013C184.319,148.329 184.086,148.669 183.888,149.027C183.56,149.62 183.333,150.257 183.183,150.917C183.161,151.024 183.14,151.131 183.12,151.238Z" style="fill-rule:nonzero;"/>
        </g>
        <g transform="matrix(0.18477,0.982782,-0.982782,0.18477,273.848,-60.1723)">
            <path d="M200.015,151.966C200.015,146.486 192.446,145.18 192.446,145.18C190.008,166.283 197.247,187.604 190.368,191.486C196.142,196.572 191.717,206.911 189.615,208.621C193.66,209.943 200.065,207.57 200.061,203.862L200.015,151.966Z" style="fill:rgb(129,129,129);"/>
        </g>
        <g transform="matrix(0.18477,0.982782,-0.982782,0.18477,273.848,-60.1723)">
            <path d="M201.449,152.76C201.449,140.995 181.638,140.6 181.638,152.76L181.705,169.602L201.248,168.7L201.449,152.76Z" style="fill:rgb(146,47,63);"/>
        </g>
        <g transform="matrix(0.18477,0.982782,-0.982782,0.18477,273.848,-60.1723)">
            <path d="M180.507,150.48C180.577,150.15 180.658,149.823 180.759,149.5C180.978,148.796 181.277,148.116 181.653,147.481C181.924,147.023 182.234,146.589 182.58,146.184C183.308,145.33 184.189,144.612 185.159,144.048C186.008,143.554 186.924,143.177 187.87,142.913C188.572,142.717 189.29,142.582 190.014,142.507C190.569,142.449 191.128,142.425 191.686,142.436C192.115,142.444 192.544,142.473 192.971,142.522C195.603,142.823 198.196,143.906 200.066,145.816C200.402,146.159 200.712,146.526 200.993,146.915C201.386,147.46 201.719,148.046 201.986,148.662C202.364,149.532 202.606,150.456 202.722,151.397C202.777,151.851 202.8,152.307 202.803,152.764L202.602,168.717C202.595,168.839 202.583,168.955 202.55,169.074C202.438,169.463 202.15,169.788 201.778,169.946C201.667,169.993 201.55,170.026 201.43,170.042C201.39,170.047 201.35,170.049 201.31,170.053L181.768,170.955C181.727,170.955 181.687,170.956 181.646,170.955C181.525,170.949 181.405,170.928 181.289,170.89C180.901,170.765 180.584,170.463 180.439,170.082C180.396,169.968 180.368,169.849 180.357,169.728C180.353,169.688 180.353,169.648 180.351,169.607L180.284,152.758C180.286,152.445 180.296,152.132 180.32,151.82C180.344,151.517 180.381,151.217 180.428,150.917C180.452,150.771 180.479,150.626 180.507,150.48ZM183.12,151.238C183.035,151.743 182.995,152.25 182.992,152.761L183.054,168.184L199.91,167.406L200.095,152.756C200.092,152.338 200.066,151.922 200.004,151.509C199.897,150.805 199.692,150.116 199.38,149.476C199.228,149.163 199.051,148.862 198.851,148.576C197.867,147.17 196.37,146.203 194.756,145.669C194.175,145.477 193.576,145.339 192.97,145.252C192.527,145.189 192.081,145.153 191.633,145.144C191.29,145.137 190.945,145.147 190.603,145.173C188.652,145.32 187.231,145.37 185.224,147.337C185.024,147.534 184.822,147.728 184.64,147.942C184.375,148.253 184.138,148.589 183.935,148.944C183.601,149.528 183.365,150.158 183.207,150.812C183.175,150.953 183.146,151.095 183.12,151.238Z" style="fill-rule:nonzero;"/>
        </g>
        <g transform="matrix(0.18477,0.982782,-0.982782,0.18477,273.848,-60.1723)">
            <path d="M200.303,153.133C200.669,142.726 186.233,144.683 186.266,146.741C192.041,154.074 192.769,159.373 192.414,167.688L199.797,167.512L200.303,153.133Z" style="fill:rgb(109,45,55);"/>
        </g>
    </g>
</svg>
