<?xml version="1.0" encoding="UTF-8" standalone="no"?>
<!DOCTYPE svg PUBLIC "-//W3C//DTD SVG 1.1//EN" "http://www.w3.org/Graphics/SVG/1.1/DTD/svg11.dtd">
<svg width="100%" height="100%" viewBox="0 0 68 88" version="1.1" xmlns="http://www.w3.org/2000/svg" xmlns:xlink="http://www.w3.org/1999/xlink" xml:space="preserve" style="fill-rule:evenodd;clip-rule:evenodd;stroke-linecap:round;stroke-linejoin:round;stroke-miterlimit:1.5;">
    <g id="Body.-Outline" transform="matrix(1,0,0,1,-147.496,-109.718)">
        <path d="M165.67,156.986L164.622,157.056C164.542,148.576 156.719,136.216 162.837,125.12L207.887,114.663L207.554,154.174L172.566,156.523L206.339,154.608L210.598,191.387L186.741,192.285L188.414,183.016C188.299,166.145 180.757,175.668 174.505,189.514L152.122,190.577C159.911,182.824 166.005,165.97 165.67,156.986Z" style="fill:none;stroke:black;stroke-width:8.33px;"/>
    </g>
    <g id="Pants" transform="matrix(0.938575,0,0,0.941937,-85.2735,-124.368)">
        <path d="M110.215,182.14C110.61,191.658 104.104,209.625 95.784,217.878L119.631,216.748C126.293,202.049 134.328,191.94 134.451,209.851L132.668,219.691L158.086,218.738L153.548,179.691L110.215,182.14Z" style="fill:rgb(49,48,0);"/>
    </g>
    <g id="Pants.-Outline" transform="matrix(0.938575,0,0,0.941937,-85.2735,-124.368)">
        <path d="M153.638,178.589C153.771,178.609 153.807,178.607 153.935,178.655C154.223,178.761 154.458,178.987 154.575,179.271C154.626,179.396 154.626,179.432 154.651,179.564L159.189,218.611C159.195,218.745 159.203,218.78 159.182,218.913C159.125,219.267 158.892,219.578 158.569,219.734C158.477,219.778 158.38,219.809 158.279,219.827C158.229,219.836 158.178,219.838 158.128,219.843L132.709,220.796C132.563,220.79 132.524,220.797 132.382,220.759C132.004,220.659 131.701,220.359 131.597,219.984C131.568,219.878 131.555,219.768 131.558,219.658C131.56,219.603 131.57,219.549 131.575,219.494L133.34,209.757C133.327,208.539 133.284,207.319 133.162,206.106C133.09,205.4 132.994,204.695 132.844,204.001C132.754,203.583 132.645,203.167 132.499,202.765C132.41,202.519 132.306,202.277 132.176,202.05C132.091,201.901 131.993,201.755 131.874,201.63C131.798,201.551 131.71,201.478 131.609,201.433C131.395,201.341 131.144,201.413 130.94,201.496C130.897,201.513 130.855,201.531 130.813,201.551C130.537,201.682 130.283,201.856 130.043,202.043C129.737,202.283 129.451,202.549 129.179,202.827C128.452,203.567 127.811,204.39 127.208,205.231C126.437,206.307 125.731,207.427 125.06,208.566C124.624,209.305 124.204,210.054 123.796,210.808C123.303,211.719 122.828,212.639 122.367,213.566C121.77,214.769 121.198,215.983 120.642,217.205L120.57,217.339C120.49,217.447 120.475,217.479 120.374,217.57C120.223,217.706 120.035,217.798 119.835,217.836C119.785,217.845 119.734,217.847 119.684,217.853L95.836,218.983C95.784,218.981 95.732,218.984 95.68,218.979C95.524,218.964 95.371,218.916 95.235,218.839C94.865,218.63 94.645,218.216 94.677,217.794C94.685,217.69 94.708,217.588 94.744,217.49C94.781,217.392 94.831,217.3 94.894,217.217C94.925,217.175 94.962,217.138 94.996,217.099C95.186,216.909 95.185,216.909 95.373,216.717C95.751,216.321 96.121,215.917 96.478,215.502C97.506,214.306 98.442,213.034 99.313,211.721C100.193,210.393 101.005,209.02 101.762,207.619C102.866,205.574 103.853,203.468 104.737,201.32C105.612,199.194 106.386,197.027 107.047,194.826C107.712,192.613 108.267,190.363 108.648,188.083C108.974,186.134 109.176,184.157 109.106,182.179L109.111,182.023C109.135,181.887 109.135,181.851 109.187,181.722C109.306,181.431 109.549,181.201 109.846,181.096C109.978,181.05 110.015,181.053 110.152,181.035L153.485,178.587C153.536,178.588 153.587,178.588 153.638,178.589ZM111.341,183.184C111.34,183.308 111.337,183.433 111.335,183.558C111.328,183.812 111.328,183.812 111.318,184.066C111.201,186.545 110.799,189.001 110.246,191.418C109.661,193.976 108.904,196.494 108.019,198.965C106.826,202.296 105.399,205.551 103.717,208.667C102.199,211.478 100.467,214.19 98.414,216.646L118.901,215.676C119.07,215.309 119.241,214.943 119.413,214.577C119.625,214.131 119.839,213.685 120.055,213.24C120.68,211.967 121.325,210.704 122.005,209.459C122.526,208.505 123.066,207.562 123.633,206.634C124.047,205.956 124.475,205.287 124.922,204.632C125.279,204.109 125.648,203.595 126.034,203.093C126.335,202.702 126.647,202.319 126.973,201.948C127.173,201.72 127.379,201.497 127.592,201.28C127.767,201.101 127.947,200.928 128.132,200.76C128.283,200.624 128.437,200.491 128.596,200.364C128.698,200.283 128.801,200.204 128.907,200.127C129.612,199.616 130.438,199.199 131.327,199.18C131.479,199.176 131.632,199.184 131.783,199.205C131.966,199.231 132.147,199.275 132.321,199.337C132.585,199.43 132.833,199.565 133.058,199.731C133.388,199.975 133.666,200.283 133.897,200.621C134.232,201.113 134.472,201.664 134.661,202.225C134.973,203.153 135.152,204.124 135.279,205.093C135.485,206.666 135.544,208.254 135.56,209.839L135.557,209.943L135.543,210.047L134.005,218.534L156.846,217.678L152.566,180.854C138.824,181.631 125.082,182.407 111.341,183.184Z" style="fill-rule:nonzero;"/>
    </g>
    <g id="Right.-Leg.-Shine" transform="matrix(1.55638,-0.667547,0.683857,1.5944,-370.698,-130.255)">
        <path d="M175.658,204.972L180.621,192.664C185.116,189.788 183.865,201.417 179.767,206.693L175.658,204.972Z" style="fill:rgb(122,118,83);"/>
    </g>
    <g id="Left.-Leg.-Shine" transform="matrix(1.69349,0,0,1.67541,-285.105,-261.248)">
        <path d="M173.682,203.259L178.032,195.299L180.131,188.205C182.04,188.226 185.74,188.093 183.482,193.441C182.509,195.747 180.355,199.135 180.131,201.931L173.682,203.259Z" style="fill:rgb(122,118,83);"/>
    </g>
    <g id="Left.-Foot" transform="matrix(0.801295,0,0,0.801295,-90.7218,-102.352)">
        <path d="M147.009,223.485C148.742,226.282 147.823,231.46 146.09,233.357L119.976,234.172C114.215,232.046 115.845,224.207 120.833,221.289C129.182,217.866 143.338,217.561 147.009,223.485Z"/>
    </g>
    <g id="Right.-Foot" transform="matrix(0.801295,0,0,0.801295,-54.439,-100.352)">
        <path d="M147.009,223.485C148.742,226.282 147.823,231.46 146.09,233.357L119.976,234.172C114.215,232.046 115.845,224.207 120.833,221.289C129.182,217.866 138.244,215.967 147.009,223.485Z"/>
    </g>
    <g id="Shirt.-Color" transform="matrix(0.952081,0,0,1.05359,-88.2512,-144.562)">
        <path d="M108.807,151.828C102.381,162.359 110.597,174.091 110.681,182.14L155.775,179.404L156.124,141.903L108.807,151.828Z" style="fill:rgb(146,47,64);"/>
    </g>
    <g id="Shirt.-Outline" transform="matrix(0.952081,0,0,1.05359,-88.2512,-144.562)">
        <path d="M156.297,140.927C156.419,140.952 156.452,140.953 156.567,140.999C156.827,141.103 157.035,141.299 157.14,141.537C157.175,141.616 157.198,141.699 157.21,141.784C157.215,141.826 157.215,141.869 157.218,141.911L156.869,179.412C156.86,179.521 156.864,179.55 156.833,179.656C156.751,179.936 156.532,180.174 156.242,180.298C156.159,180.333 156.072,180.359 155.983,180.374C155.939,180.382 155.893,180.385 155.848,180.39L110.755,183.126C110.709,183.126 110.664,183.129 110.618,183.127C110.527,183.122 110.437,183.107 110.351,183.082C109.999,182.981 109.722,182.72 109.626,182.399C109.583,182.258 109.588,182.118 109.584,181.973C109.583,181.914 109.58,181.855 109.578,181.796C109.569,181.616 109.569,181.616 109.558,181.436C109.435,179.805 109.063,178.2 108.634,176.615C108.22,175.084 107.75,173.565 107.3,172.043C107.206,171.723 107.113,171.402 107.02,171.082C106.765,170.182 106.517,169.281 106.294,168.375C105.818,166.431 105.449,164.46 105.314,162.47C105.157,160.157 105.329,157.82 105.981,155.573C106.243,154.668 106.582,153.781 106.994,152.923C107.229,152.432 107.49,151.952 107.77,151.481L107.847,151.354C107.909,151.265 107.92,151.239 108,151.161C108.118,151.044 108.268,150.953 108.433,150.899C108.475,150.885 108.518,150.876 108.56,150.865L155.876,140.94C156.016,140.919 156.015,140.919 156.157,140.915C156.203,140.919 156.25,140.923 156.297,140.927ZM109.538,152.69C109.048,153.547 108.64,154.441 108.323,155.362C108.121,155.949 107.956,156.546 107.827,157.149C107.459,158.86 107.381,160.612 107.498,162.35C107.626,164.236 107.979,166.104 108.431,167.947C108.569,168.51 108.715,169.071 108.87,169.631C109.046,170.267 109.228,170.901 109.414,171.535C109.689,172.467 109.97,173.398 110.245,174.33C110.377,174.784 110.508,175.239 110.636,175.695C111.127,177.468 111.563,179.26 111.725,181.085L154.689,178.479L155.018,143.15C139.858,146.33 124.698,149.51 109.538,152.69Z" style="fill-rule:nonzero;"/>
    </g>
</svg>
