<?xml version="1.0" encoding="UTF-8" standalone="no"?>
<!DOCTYPE svg PUBLIC "-//W3C//DTD SVG 1.1//EN" "http://www.w3.org/Graphics/SVG/1.1/DTD/svg11.dtd">
<svg width="100%" height="100%" viewBox="0 0 54 24" version="1.1" xmlns="http://www.w3.org/2000/svg" xmlns:xlink="http://www.w3.org/1999/xlink" xml:space="preserve" style="fill-rule:evenodd;clip-rule:evenodd;stroke-linejoin:round;stroke-miterlimit:1.41421;">
    <g id="Blink" transform="matrix(1,0,0,1,-94.9509,-86.4666)">
        <path d="M137.501,100.212L137.501,102.626L123.727,102.626L123.727,100.212L137.501,100.212ZM115.501,100.212L115.501,102.626L102.277,102.626L102.277,100.212L115.501,100.212Z"/>
    </g>
    <g id="Worried" transform="matrix(1,0,0,1,-94.9509,-86.4666)">
        <path d="M124.737,91.605L124.737,86.755L141.804,90.431L146.87,96.489C137.791,91.95 130.073,92.584 124.737,91.605ZM116.318,91.031C110.189,91.501 103.855,92.587 96.528,94.478L101.365,90.049L116.491,86.755L116.318,91.031Z"/>
    </g>
</svg>
