<?xml version="1.0" encoding="UTF-8" standalone="no"?>
<!DOCTYPE svg PUBLIC "-//W3C//DTD SVG 1.1//EN" "http://www.w3.org/Graphics/SVG/1.1/DTD/svg11.dtd">
<svg width="100%" height="100%" viewBox="0 0 54 24" version="1.1" xmlns="http://www.w3.org/2000/svg" xmlns:xlink="http://www.w3.org/1999/xlink" xml:space="preserve" style="fill-rule:evenodd;clip-rule:evenodd;stroke-linejoin:round;stroke-miterlimit:1.41421;">
    <g id="Open" transform="matrix(1,0,0,1,-1.21349,2.09984)">
        <path d="M34.142,6.507C36.547,6.507 38.5,9.891 38.5,14.059C38.5,18.227 36.547,21.611 34.142,21.611C31.736,21.611 29.784,18.227 29.784,14.059C29.784,9.891 31.736,6.507 34.142,6.507ZM16.008,5.195C18.413,5.195 20.366,8.579 20.366,12.747C20.366,16.915 18.413,20.299 16.008,20.299C13.603,20.299 11.65,16.915 11.65,12.747C11.65,8.579 13.603,5.195 16.008,5.195Z" style="fill:rgb(255,43,0);"/>
    </g>
    <g transform="matrix(1,0,0,1,-1.21349,2.09984)">
        <path d="M34.198,6.508C34.366,6.513 34.532,6.532 34.697,6.568C35.609,6.769 36.342,7.435 36.873,8.175C36.97,8.311 37.062,8.451 37.148,8.593C37.251,8.764 37.347,8.939 37.437,9.118C37.969,10.183 38.272,11.359 38.411,12.538C38.538,13.608 38.531,14.696 38.388,15.764C38.267,16.675 38.045,17.578 37.695,18.43C37.597,18.67 37.488,18.906 37.367,19.136C37.276,19.31 37.177,19.482 37.071,19.648C36.995,19.768 36.916,19.885 36.832,19.999C36.295,20.731 35.555,21.381 34.642,21.562C34.496,21.591 34.347,21.607 34.198,21.61C34.03,21.614 33.862,21.601 33.697,21.572C32.76,21.407 31.999,20.745 31.452,19.999C31.368,19.885 31.288,19.768 31.212,19.648C31.106,19.482 31.007,19.311 30.916,19.136C30.797,18.905 30.687,18.67 30.588,18.43C30.285,17.691 30.079,16.913 29.949,16.125C29.837,15.443 29.784,14.751 29.784,14.059C29.784,13.489 29.82,12.919 29.896,12.354C29.959,11.882 30.049,11.413 30.169,10.952C30.254,10.627 30.354,10.305 30.471,9.99C30.563,9.741 30.665,9.496 30.779,9.256C30.866,9.074 30.96,8.895 31.061,8.72C31.145,8.574 31.235,8.43 31.33,8.291C31.859,7.516 32.597,6.807 33.533,6.58C33.696,6.541 33.862,6.519 34.03,6.509C34.086,6.508 34.142,6.507 34.198,6.508ZM16.064,5.196C16.232,5.201 16.398,5.22 16.563,5.256C17.475,5.457 18.208,6.123 18.739,6.863C18.836,6.999 18.928,7.139 19.014,7.281C19.117,7.452 19.213,7.627 19.303,7.806C19.835,8.871 20.138,10.047 20.277,11.226C20.404,12.296 20.397,13.384 20.254,14.452C20.133,15.363 19.911,16.266 19.561,17.118C19.463,17.358 19.354,17.594 19.233,17.824C19.142,17.998 19.043,18.17 18.937,18.336C18.861,18.456 18.782,18.573 18.698,18.687C18.15,19.433 17.39,20.095 16.453,20.26C16.306,20.286 16.157,20.299 16.008,20.299C15.859,20.299 15.71,20.286 15.563,20.26C14.626,20.095 13.866,19.433 13.318,18.687C13.234,18.573 13.155,18.456 13.079,18.336C12.973,18.17 12.874,17.998 12.783,17.824C12.662,17.594 12.553,17.358 12.455,17.118C12.105,16.266 11.883,15.363 11.762,14.452C11.619,13.384 11.612,12.296 11.739,11.226C11.878,10.047 12.181,8.871 12.713,7.806C12.803,7.627 12.899,7.452 13.002,7.281C13.088,7.139 13.18,6.999 13.277,6.863C13.808,6.123 14.541,5.457 15.453,5.256C15.618,5.22 15.784,5.201 15.952,5.196C16.008,5.195 16.008,5.195 16.064,5.196ZM34.13,8.507C33.916,8.514 33.721,8.637 33.559,8.767C33.382,8.911 33.228,9.083 33.091,9.266C32.94,9.467 32.806,9.683 32.69,9.907C32.617,10.047 32.549,10.189 32.486,10.334C32.069,11.301 31.865,12.357 31.803,13.404C31.762,14.103 31.786,14.806 31.878,15.499C31.96,16.115 32.097,16.725 32.302,17.312C32.372,17.509 32.449,17.704 32.535,17.894C32.675,18.203 32.839,18.502 33.037,18.778C33.169,18.963 33.317,19.138 33.486,19.289C33.596,19.387 33.717,19.476 33.851,19.539C33.938,19.58 34.032,19.609 34.13,19.611C34.342,19.615 34.54,19.496 34.701,19.369C34.876,19.232 35.029,19.065 35.165,18.888C35.306,18.706 35.431,18.511 35.541,18.309C35.615,18.173 35.685,18.035 35.749,17.894C35.835,17.704 35.912,17.509 35.981,17.312C36.17,16.773 36.301,16.215 36.384,15.651C36.487,14.962 36.52,14.262 36.489,13.566C36.443,12.505 36.25,11.434 35.845,10.448C35.785,10.301 35.719,10.155 35.648,10.012C35.517,9.751 35.368,9.499 35.192,9.266C35.068,9.1 34.93,8.943 34.772,8.808C34.607,8.665 34.404,8.526 34.179,8.508C34.162,8.507 34.146,8.507 34.13,8.507ZM15.996,7.195C15.772,7.203 15.568,7.336 15.402,7.475C15.04,7.777 14.771,8.186 14.554,8.6C14.481,8.738 14.414,8.879 14.353,9.023C13.935,9.989 13.731,11.045 13.669,12.092C13.628,12.791 13.652,13.494 13.744,14.187C13.826,14.803 13.963,15.413 14.169,16C14.238,16.197 14.315,16.392 14.401,16.582C14.465,16.723 14.535,16.861 14.609,16.997C14.719,17.199 14.844,17.394 14.985,17.576C15.121,17.753 15.273,17.92 15.449,18.057C15.604,18.179 15.793,18.294 15.996,18.299C16.208,18.303 16.406,18.184 16.567,18.057C16.743,17.92 16.895,17.753 17.031,17.576C17.172,17.394 17.297,17.199 17.407,16.997C17.481,16.861 17.551,16.723 17.615,16.582C17.701,16.392 17.778,16.197 17.847,16C18.036,15.461 18.167,14.903 18.25,14.339C18.353,13.65 18.386,12.95 18.355,12.254C18.309,11.193 18.116,10.122 17.711,9.136C17.651,8.989 17.585,8.843 17.514,8.7C17.383,8.439 17.234,8.187 17.058,7.954C16.934,7.788 16.796,7.631 16.638,7.496C16.473,7.353 16.27,7.214 16.045,7.196C16.028,7.195 16.012,7.195 15.996,7.195Z" style="fill-rule:nonzero;"/>
    </g>
    <g id="Angry" transform="matrix(1,0,0,1,-94.9509,-86.4666)">
        <path d="M126.933,98.083L122.175,93.761L142.74,89.878L148,89.661L126.933,98.083ZM111.086,96.632L95.902,88.657L100.435,88.938L115.53,93.761L111.086,96.632Z"/>
    </g>
</svg>
