<?xml version="1.0" encoding="UTF-8" standalone="no"?>
<!DOCTYPE svg PUBLIC "-//W3C//DTD SVG 1.1//EN" "http://www.w3.org/Graphics/SVG/1.1/DTD/svg11.dtd">
<svg width="100%" height="100%" viewBox="0 0 124 124" version="1.1" xmlns="http://www.w3.org/2000/svg" xmlns:xlink="http://www.w3.org/1999/xlink" xml:space="preserve" style="fill-rule:evenodd;clip-rule:evenodd;stroke-linecap:round;stroke-linejoin:round;stroke-miterlimit:1.5;">
    <g id="Outline" transform="matrix(1,0,0,1,-69.0926,-33.9678)">
        <path d="M115.434,33.997C115.587,34.016 115.741,34.028 115.893,34.054C116.299,34.123 116.395,34.167 116.787,34.289L145.883,44.767L176.422,48.612L176.886,48.692C177.038,48.732 177.191,48.766 177.341,48.813C177.64,48.908 177.93,49.029 178.208,49.176C178.762,49.469 179.263,49.864 179.678,50.334C180.197,50.923 180.58,51.629 180.79,52.385C180.874,52.688 180.931,52.997 180.959,53.31C180.973,53.466 180.973,53.623 180.98,53.78L180.98,59.475L187.936,60.989L188.401,61.113C188.551,61.168 188.705,61.217 188.852,61.279C189.296,61.466 189.713,61.715 190.089,62.017C190.715,62.519 191.222,63.167 191.558,63.897C191.894,64.626 192.058,65.432 192.034,66.235C192.02,66.716 191.938,67.195 191.792,67.654C191.744,67.807 191.681,67.955 191.625,68.106L174.773,107.967L174.81,107.985L175.018,108.099C175.222,108.218 175.423,108.339 175.618,108.473C176.002,108.736 176.362,109.033 176.696,109.357C177.016,109.669 177.311,110.008 177.577,110.368C177.789,110.653 177.982,110.952 178.158,111.261C178.325,111.556 178.475,111.86 178.608,112.171C179.406,114.028 179.595,116.094 179.432,118.094C179.334,119.307 179.107,120.508 178.786,121.681C178.552,122.538 178.266,123.38 177.935,124.203C177.664,124.876 177.362,125.536 177.029,126.181C176.772,126.678 176.497,127.167 176.203,127.643C175.995,127.978 175.779,128.308 175.553,128.63C174.12,130.671 172.259,132.491 169.957,133.513C169.586,133.678 169.206,133.821 168.818,133.94C168.413,134.063 168,134.161 167.582,134.23C167.366,134.265 167.15,134.29 166.932,134.313L166.898,134.315L163.56,140.977L163.332,141.383C163.099,141.725 163.051,141.82 162.774,142.128C162.358,142.59 161.859,142.976 161.308,143.263C160.94,143.455 160.836,143.477 160.447,143.617L114.951,157.734C114.552,157.839 114.454,157.879 114.043,157.929C113.118,158.043 112.169,157.904 111.316,157.53C111.032,157.405 110.759,157.256 110.502,157.083C110.373,156.996 110.253,156.898 110.128,156.806L84.926,136.384C84.629,136.121 84.545,136.064 84.283,135.765C83.793,135.204 83.426,134.538 83.213,133.824C83.128,133.538 83.068,133.246 83.033,132.95C83.015,132.802 83.011,132.653 82.999,132.505C82.939,130.608 82.878,128.711 82.82,126.813C82.597,119.309 82.418,111.803 82.374,104.295C82.347,99.801 82.366,95.307 82.445,90.814C82.483,88.646 82.537,86.48 82.601,84.313L82.627,83.499C82.652,83.15 82.648,83.061 82.712,82.717C82.773,82.386 82.869,82.06 82.958,81.736C83.07,81.33 83.188,80.925 83.311,80.522C83.765,79.04 84.301,77.587 84.905,76.16L84.927,76.109L71.121,56.81L70.866,56.418C70.794,56.28 70.715,56.146 70.648,56.005C70.382,55.441 70.218,54.83 70.166,54.209C70.102,53.432 70.215,52.643 70.494,51.915C70.773,51.187 71.217,50.525 71.784,49.99C72.124,49.67 72.507,49.395 72.92,49.176C73.471,48.885 74.074,48.693 74.693,48.614C74.847,48.594 75.003,48.588 75.158,48.575L91.418,47.954L91.61,43.972L91.654,43.502C91.683,43.348 91.705,43.191 91.741,43.038C91.848,42.579 92.018,42.134 92.245,41.72C92.624,41.029 93.159,40.428 93.802,39.973C94.445,39.518 95.189,39.212 95.967,39.084C96.432,39.007 96.908,38.994 97.378,39.046C97.534,39.063 97.688,39.094 97.844,39.118L106.953,40.958L110.949,35.943L111.253,35.595C111.55,35.31 111.615,35.228 111.948,34.985C112.571,34.529 113.294,34.216 114.053,34.072C114.457,33.995 114.562,34.003 114.972,33.981C115.126,33.986 115.28,33.992 115.434,33.997ZM113.115,49.94C112.837,50.258 112.777,50.348 112.457,50.626C111.615,51.357 110.544,51.804 109.432,51.888C109.115,51.911 108.797,51.906 108.481,51.872C108.323,51.855 108.167,51.823 108.011,51.799L101.722,50.529L101.592,53.228L101.546,53.709C101.516,53.867 101.494,54.027 101.456,54.183C101.382,54.497 101.278,54.803 101.147,55.097C100.818,55.834 100.318,56.49 99.695,57.002C99.197,57.411 98.623,57.726 98.011,57.926C97.704,58.027 97.389,58.098 97.07,58.14C96.91,58.161 96.749,58.168 96.588,58.181L85.22,58.615L95.182,72.541L95.441,72.942C95.638,73.317 95.701,73.405 95.845,73.805C96.224,74.857 96.253,76.02 95.928,77.089C95.881,77.241 95.828,77.392 95.768,77.539C95.655,77.816 95.579,77.949 95.455,78.189C95.364,78.366 95.34,78.415 95.25,78.593C95.15,78.797 95.051,79.002 94.953,79.208C94.628,79.906 94.323,80.613 94.045,81.331C93.653,82.348 93.313,83.385 93.02,84.434C92.992,85.299 92.969,86.164 92.946,87.029C92.893,89.139 92.851,91.25 92.824,93.361C92.768,97.749 92.767,102.137 92.808,106.525C92.879,114.135 93.082,121.742 93.32,129.348L93.334,129.79L114.523,146.96L155.241,134.326L159.323,126.18L159.555,125.766C159.645,125.635 159.729,125.5 159.824,125.374C160.111,124.995 160.449,124.655 160.828,124.368C161.459,123.888 162.198,123.556 162.976,123.403C163.598,123.281 164.242,123.273 164.867,123.381C165.196,123.438 165.468,123.515 165.783,123.628C165.881,123.662 165.974,123.708 166.069,123.748C166.134,123.693 166.196,123.634 166.257,123.575C166.542,123.29 166.795,122.976 167.026,122.647C167.27,122.299 167.489,121.936 167.689,121.562C167.964,121.048 168.203,120.513 168.406,119.966C168.647,119.314 168.836,118.643 168.958,117.958L168.958,117.955L168.749,118.034L168.297,118.16C168.144,118.188 167.991,118.223 167.836,118.245C167.217,118.33 166.582,118.302 165.972,118.163C165.209,117.989 164.489,117.642 163.878,117.154C163.266,116.666 162.769,116.04 162.431,115.334C162.228,114.911 162.083,114.461 162.001,113.999C161.918,113.537 161.899,113.065 161.942,112.598C161.957,112.442 161.981,112.287 162.007,112.133C162.041,111.934 162.152,111.315 162.225,111.037C162.309,110.714 162.348,110.638 162.466,110.327L179.586,69.832L174.664,68.761L174.209,68.64C174.062,68.586 173.912,68.539 173.767,68.478C173.477,68.357 173.198,68.211 172.935,68.039C171.877,67.352 171.092,66.283 170.754,65.067C170.67,64.764 170.613,64.455 170.585,64.142C170.571,63.986 170.571,63.828 170.564,63.671L170.564,58.373L144.01,55.03L143.632,54.969C143.26,54.879 143.26,54.88 142.895,54.763L116.769,45.354C115.551,46.883 114.333,48.411 113.115,49.94Z" style="fill-rule:nonzero;"/>
    </g>
    <g id="Main.-Color" transform="matrix(1,0,0,1.03988,-69.0926,-36.1978)">
        <path d="M87.833,82.6C87.269,99.227 87.718,115.008 88.205,129.406L113.407,149.045L158.903,135.47L163.98,125.729C172.141,130.511 180.766,105.161 167.128,110.892C167.128,110.892 170.844,91.734 170.963,89.414C173.227,45.15 98.985,41.465 87.833,82.6Z" style="fill:rgb(165,165,165);stroke:black;stroke-width:2.04px;"/>
    </g>
    <g id="Beard" transform="matrix(0.97301,0,0,0.914804,-64.6787,-21.7131)">
        <path d="M86.922,119.869C91.792,122.586 89.57,130.852 109.177,124.33C124.585,130.401 140.257,131.049 156.284,124.33L162.184,128.356L157.681,138.434L111.786,152.76L87.171,130.751L86.922,119.869Z" style="fill:rgb(89,89,89);"/>
    </g>
    <g id="Forehead.-Shadow" transform="matrix(1,0,0,1,-69.0926,-55.4318)">
        <path d="M91.12,99.4L148.973,97.968L157.632,115.372L133.349,107.401L95.857,109.014L91.12,99.4Z" style="fill:rgb(126,126,126);"/>
    </g>
    <g id="Eye.-Shadow" transform="matrix(1,0,0,1,-69.2581,-29.5122)">
        <path d="M89.621,99.292C98.051,97.006 106.25,97.157 114.386,97.98C127.04,97.855 139.16,99.536 150,105.532C142.403,111.277 133.899,117.896 122.952,117.055L112.819,110.957C108.567,113.982 103.628,114.463 98.188,113.085C93.223,108.734 90.733,104.094 89.621,99.292Z" style="fill:rgb(127,127,127);"/>
    </g>
    <g id="Hair" transform="matrix(1,0,0,1,-69.0926,-33.9678)">
        <path id="Main.-Color1" d="M75.357,53.78L96.812,83.773L146.288,76.914L157.617,92.957L155.449,100.659L157.475,124.33L166.955,113.085L186.828,66.078L175.772,63.671L175.772,53.78L144.66,49.863L115.022,39.189L109.042,46.694L96.812,44.223L96.39,52.977L75.357,53.78Z" style="fill:rgb(103,103,103);"/>
        <path id="Outline1" d="M115.16,37.215C115.43,37.252 115.43,37.252 115.693,37.327L145.125,47.927L176.019,51.816L176.299,51.872C176.538,51.957 176.605,51.966 176.821,52.102C177.228,52.356 177.532,52.756 177.669,53.215C177.742,53.46 177.733,53.527 177.751,53.78L177.751,62.077L187.249,64.144L187.527,64.226C187.759,64.334 187.826,64.349 188.031,64.506C188.575,64.923 188.869,65.609 188.796,66.29C188.768,66.546 188.733,66.606 188.651,66.848L168.778,113.855C168.702,114.014 168.688,114.057 168.588,114.203C168.551,114.257 168.508,114.308 168.468,114.36L158.988,125.605C158.92,125.675 158.857,125.749 158.784,125.814C158.566,126.007 158.304,126.15 158.024,126.231C157.837,126.285 157.643,126.311 157.449,126.309C156.76,126.3 156.111,125.921 155.764,125.325C155.666,125.157 155.594,124.975 155.549,124.786C155.526,124.691 155.518,124.594 155.503,124.498L153.477,100.828C153.475,100.748 153.468,100.669 153.471,100.59C153.479,100.379 153.499,100.328 153.544,100.123L155.457,93.328L145.366,79.04L97.084,85.733C96.847,85.75 96.786,85.767 96.548,85.734C96.192,85.686 95.851,85.54 95.571,85.315C95.384,85.164 95.354,85.108 95.203,84.925L73.747,54.931C73.698,54.85 73.643,54.773 73.599,54.689C73.512,54.52 73.449,54.34 73.413,54.154C73.287,53.495 73.511,52.8 73.999,52.34C74.137,52.209 74.293,52.1 74.463,52.014C74.632,51.928 74.813,51.867 74.999,51.833C75.092,51.816 75.187,51.812 75.281,51.802L94.5,51.068L94.836,44.128L94.87,43.846C94.935,43.603 94.939,43.536 95.056,43.312C95.365,42.716 95.971,42.31 96.639,42.252C96.892,42.229 96.955,42.251 97.204,42.283L108.248,44.514L113.475,37.956L113.659,37.754C113.846,37.6 113.887,37.55 114.103,37.437C114.264,37.352 114.437,37.29 114.616,37.252C114.705,37.233 114.796,37.227 114.886,37.215C114.977,37.215 115.068,37.215 115.16,37.215ZM110.59,47.927C110.427,48.105 110.394,48.159 110.198,48.301C109.903,48.512 109.552,48.64 109.19,48.668C108.949,48.686 108.888,48.665 108.65,48.634L98.678,46.619L98.367,53.072L98.331,53.363C98.261,53.614 98.257,53.683 98.133,53.914C97.899,54.348 97.505,54.684 97.04,54.846C96.793,54.932 96.723,54.925 96.465,54.954L79.105,55.617L97.726,81.648L146.016,74.953C146.255,74.937 146.317,74.92 146.556,74.953C146.914,75.002 147.256,75.15 147.536,75.378C147.724,75.53 147.754,75.586 147.905,75.772L159.234,91.815C159.284,91.899 159.341,91.979 159.385,92.066C159.517,92.328 159.589,92.619 159.596,92.913C159.602,93.175 159.574,93.239 159.522,93.493L157.452,100.849L159.039,119.403L165.249,112.038L184.076,67.504L175.351,65.605C175.123,65.539 175.06,65.534 174.848,65.422C174.37,65.17 174.01,64.723 173.865,64.202C173.801,63.971 173.809,63.909 173.793,63.671L173.793,55.525L144.413,51.827L144.198,51.787L143.99,51.725L115.686,41.532C113.987,43.664 112.289,45.795 110.59,47.927Z" style="fill-rule:nonzero;"/>
        <g id="Shadow.-Color" transform="matrix(1,0,0,1,-4.9269,9.219)">
            <path d="M162.472,61.321L167.169,58.727L179.369,55.78L173.188,65.488L165.59,65.488L166.777,67.213L163.737,81.909L151.809,65.488L102.59,72.54L94.884,47.31L108.697,56.877L114.165,44.603L123.977,49.731L129.639,41.82L162.472,61.321Z" style="fill:rgb(76,76,76);"/>
        </g>
        <g id="Streaks" transform="matrix(1,0,0,1,-4.9269,9.219)">
            <path d="M114.928,71.215L110.659,66.119L120.558,71.18C120.558,71.18 116.849,71.199 114.928,71.215L114.945,71.236C113.188,71.234 113.682,71.225 114.928,71.215ZM127.861,69.143L120.558,60.757L133.491,69.108C133.491,69.108 129.781,69.127 127.861,69.143L127.879,69.164C126.122,69.162 126.615,69.153 127.861,69.143ZM151.936,65.835L135.851,54.481L146.642,67.032L151.936,65.835Z"/>
        </g>
    </g>
</svg>
