<?xml version="1.0" encoding="UTF-8" standalone="no"?>
<!DOCTYPE svg PUBLIC "-//W3C//DTD SVG 1.1//EN" "http://www.w3.org/Graphics/SVG/1.1/DTD/svg11.dtd">
<svg width="100%" height="100%" viewBox="0 0 54 24" version="1.1" xmlns="http://www.w3.org/2000/svg" xmlns:xlink="http://www.w3.org/1999/xlink" xml:space="preserve" style="fill-rule:evenodd;clip-rule:evenodd;stroke-linejoin:round;stroke-miterlimit:1.41421;">
    <g id="Layer1">
        <path d="M1.898,7.899L9.62,11.488L20.365,12L21.315,4.598L16.873,3.059L1.898,7.899Z" style="fill:rgb(252,186,244);"/>
        <g transform="matrix(-1.31121,0,0,1.10491,54.4079,-0.014315)">
            <path d="M1.898,9.084L11.935,11.337L20.148,11.238L18.818,4.679L16.873,3.059C11.89,3.894 6.9,5.603 1.898,9.084Z" style="fill:rgb(252,186,244);"/>
        </g>
    </g>
    <g id="Open" transform="matrix(1,0,0,1,-1.21349,2.09984)">
        <path d="M34.142,6.507C36.547,6.507 38.5,9.891 38.5,14.059C38.5,18.227 36.547,21.611 34.142,21.611C31.736,21.611 29.784,18.227 29.784,14.059C29.784,9.891 31.736,6.507 34.142,6.507ZM16.008,5.195C18.413,5.195 20.366,8.579 20.366,12.747C20.366,16.915 18.413,20.299 16.008,20.299C13.603,20.299 11.65,16.915 11.65,12.747C11.65,8.579 13.603,5.195 16.008,5.195Z"/>
    </g>
    <path d="M9.637,12.472C9.626,12.316 9.62,12.159 9.62,12C9.62,8.79 12.033,6.184 15.004,6.184C17.976,6.184 20.389,8.79 20.389,12C20.389,12.12 20.386,12.24 20.379,12.358C18.967,11.653 17.128,11.226 15.118,11.226C13.002,11.226 11.075,11.699 9.637,12.472Z" style="fill:rgb(0,140,255);"/>
    <g transform="matrix(1,0,0,1,18.3693,0.772776)">
        <path d="M9.637,12.472C9.626,12.316 9.62,12.159 9.62,12C9.62,8.79 12.033,6.184 15.004,6.184C17.976,6.184 20.389,8.79 20.389,12C20.389,12.12 20.386,12.24 20.379,12.358C18.967,11.653 17.128,11.226 15.118,11.226C13.002,11.226 11.075,11.699 9.637,12.472Z" style="fill:rgb(0,140,255);"/>
    </g>
    <g id="Worried" transform="matrix(1,0,0,1,-94.9509,-86.4666)">
        <path d="M124.737,91.605L124.737,86.755L141.804,90.431L146.87,96.489C137.791,91.95 130.073,92.584 124.737,91.605ZM116.318,91.031C110.189,91.501 103.855,92.587 96.528,94.478L101.365,90.049L116.491,86.755L116.318,91.031Z"/>
    </g>
    <g transform="matrix(1,0,0,1,0.585944,0.0461086)">
        <path d="M20.389,12.239C15.866,9.663 4.621,11.784 4.796,12.472L8.742,12.792C7.825,13.543 6.582,14.744 6.582,14.744C6.582,14.744 7.937,14.198 10.111,13.828L20.389,12.239Z"/>
    </g>
    <g transform="matrix(-1,0,0,1,47.6873,1.00277)">
        <path d="M20.389,12.239C15.866,9.663 4.621,11.784 4.796,12.472L8.742,12.792C7.825,13.543 6.582,14.744 6.582,14.744C6.582,14.744 7.937,14.198 10.111,13.828L20.389,12.239Z"/>
    </g>
</svg>
