<?xml version="1.0" encoding="UTF-8" standalone="no"?>
<!DOCTYPE svg PUBLIC "-//W3C//DTD SVG 1.1//EN" "http://www.w3.org/Graphics/SVG/1.1/DTD/svg11.dtd">
<svg width="100%" height="100%" viewBox="0 0 54 24" version="1.1" xmlns="http://www.w3.org/2000/svg" xmlns:xlink="http://www.w3.org/1999/xlink" xml:space="preserve" style="fill-rule:evenodd;clip-rule:evenodd;stroke-linejoin:round;stroke-miterlimit:1.41421;">
    <g id="Wince" transform="matrix(1,0,0,1,-1.21349,2.09984)">
        <path d="M29.99,15.454C30.769,11.782 37.656,6.652 44.446,17.44C36.954,13.03 35.112,13.212 29.99,15.454ZM21.676,14.191C20.423,7.688 12.376,8.454 8.487,15.342C15.503,11.294 17.537,11.949 21.676,14.191Z"/>
    </g>
    <g id="Angry" transform="matrix(1,0,0,1,-94.9509,-86.4666)">
        <path d="M126.933,98.083L122.175,93.761L142.74,89.878L148,89.661L126.933,98.083ZM111.086,96.632L95.902,88.657L100.435,88.938L115.53,93.761L111.086,96.632Z"/>
    </g>
</svg>
