<?xml version="1.0" encoding="UTF-8" standalone="no"?>
<!DOCTYPE svg PUBLIC "-//W3C//DTD SVG 1.1//EN" "http://www.w3.org/Graphics/SVG/1.1/DTD/svg11.dtd">
<svg width="100%" height="100%" viewBox="0 0 54 24" version="1.1" xmlns="http://www.w3.org/2000/svg" xmlns:xlink="http://www.w3.org/1999/xlink" xml:space="preserve" style="fill-rule:evenodd;clip-rule:evenodd;stroke-linejoin:round;stroke-miterlimit:1.41421;">
    <g id="Layer1">
        <path d="M1.898,7.899L7.326,15.668L20.535,15.758L21.315,4.598L16.873,3.059L1.898,7.899Z" style="fill:rgb(252,186,244);"/>
        <g transform="matrix(-1.31121,0,0,1.10491,54.4079,-0.014315)">
            <path d="M1.898,9.084L9.25,14.193L19.323,14.275L18.818,4.679L16.873,3.059C11.89,3.894 6.9,5.603 1.898,9.084Z" style="fill:rgb(252,186,244);"/>
        </g>
    </g>
    <g transform="matrix(1.22652,0,0,1.03238,-4.47291,2.79233)">
        <path d="M9.637,12.472C9.626,12.316 9.62,12.159 9.62,12C9.62,8.79 12.033,6.184 15.004,6.184C17.976,6.184 20.389,8.79 20.389,12C20.389,12.12 20.396,12.441 20.389,12.559C18.977,11.854 17.128,11.226 15.118,11.226C13.002,11.226 11.075,11.699 9.637,12.472Z" style="fill:rgb(0,140,255);"/>
    </g>
    <g transform="matrix(1.22652,0,0,1.03257,17.2722,2.88019)">
        <path d="M9.637,12.472C9.626,12.316 9.62,12.159 9.62,12C9.62,8.79 12.033,6.184 15.004,6.184C17.976,6.184 20.389,8.79 20.389,12C20.389,12.12 20.386,12.24 20.379,12.358C18.967,11.653 17.128,11.226 15.118,11.226C13.002,11.226 11.075,11.699 9.637,12.472Z" style="fill:rgb(0,140,255);"/>
    </g>
    <g id="Worried" transform="matrix(1,0,0,1,-94.9509,-86.4666)">
        <path d="M124.737,91.605L124.737,86.755L141.804,90.431L146.87,96.489C137.791,91.95 130.073,92.584 124.737,91.605ZM116.318,91.031C110.189,91.501 103.855,92.587 96.528,94.478L101.365,90.049L116.491,86.755L116.318,91.031Z"/>
    </g>
    <g transform="matrix(1,0,0,1,0.145624,3.95517)">
        <path d="M20.393,11.803C15.895,8.657 4.638,11.412 4.796,12.472L8.742,12.792C7.825,13.543 6.582,14.744 6.582,14.744C6.582,14.744 7.937,14.198 10.111,13.828L20.393,11.803Z"/>
    </g>
    <g transform="matrix(-1,0,0,1,49.4601,3.95517)">
        <path d="M20.389,11.803C15.803,8.65 4.579,11.401 4.796,12.472L8.742,12.792C7.825,13.543 6.582,14.744 6.582,14.744C6.582,14.744 7.937,14.198 10.111,13.828L20.389,11.803Z"/>
    </g>
</svg>
