<?xml version="1.0" encoding="UTF-8" standalone="no"?>
<!DOCTYPE svg PUBLIC "-//W3C//DTD SVG 1.1//EN" "http://www.w3.org/Graphics/SVG/1.1/DTD/svg11.dtd">
<svg width="100%" height="100%" viewBox="0 0 32 16" version="1.1" xmlns="http://www.w3.org/2000/svg" xmlns:xlink="http://www.w3.org/1999/xlink" xml:space="preserve" style="fill-rule:evenodd;clip-rule:evenodd;stroke-linejoin:round;stroke-miterlimit:1.41421;">
    <g transform="matrix(-0.922742,0,0,1.15104,59.0739,-113.176)">
        <path d="M63.497,100.639C63.497,100.639 63.583,112.141 47.741,112.225C38.698,112.273 31.35,105.392 29.341,98.325C45.802,102.086 57.435,102.491 63.497,100.639Z"/>
    </g>
    <g id="Layer1">
        <g transform="matrix(0.928507,0,0,0.819326,0.834789,1.40449)">
            <path d="M2.844,7.138C15.097,6.911 16.954,6.731 28.218,4.346C28.993,3.457 29.608,2.182 29.895,1.107C18.137,5.052 14.28,5.312 1.977,4.669C2.103,5.387 2.362,6.539 2.844,7.138Z" style="fill:white;"/>
        </g>
        <g transform="matrix(1,0,0,1,0.0622979,-1.58979)">
            <path d="M8.312,13.567C15.832,13.536 17.406,13.33 24.212,11.375C21.442,14.599 14.132,17.504 8.312,13.567Z" style="fill:white;"/>
        </g>
    </g>
</svg>
