<?xml version="1.0" encoding="UTF-8" standalone="no"?>
<!DOCTYPE svg PUBLIC "-//W3C//DTD SVG 1.1//EN" "http://www.w3.org/Graphics/SVG/1.1/DTD/svg11.dtd">
<svg width="100%" height="100%" viewBox="0 0 32 16" version="1.1" xmlns="http://www.w3.org/2000/svg" xmlns:xlink="http://www.w3.org/1999/xlink" xml:space="preserve" style="fill-rule:evenodd;clip-rule:evenodd;stroke-linejoin:round;stroke-miterlimit:1.41421;">
    <g transform="matrix(0.756229,0,0,0.795752,-74.4508,-101.155)">
        <g transform="matrix(0.776318,0.0300048,-0.0507794,1.31382,81.0219,-0.239967)">
            <path d="M68.051,98.624L47.398,101.427L38.412,101.632C35.976,102.507 33.316,103.434 45.602,107.96C51.656,106.114 56.441,105.028 64.456,107.241C78.319,103.212 80.982,100.206 68.051,98.624Z" style="fill:white;"/>
        </g>
        <g transform="matrix(0.776318,0.0300048,-0.0507794,1.31382,81.0219,-0.239967)">
            <path d="M68.178,97.867L68.316,97.88C68.618,97.917 68.92,97.956 69.221,97.996C70.669,98.195 72.11,98.427 73.484,98.767C74.293,98.967 75.078,99.206 75.786,99.514C76.234,99.71 76.647,99.942 76.976,100.209C77.192,100.385 77.372,100.577 77.5,100.781C77.597,100.937 77.665,101.1 77.698,101.265C77.722,101.381 77.73,101.497 77.722,101.613C77.675,102.283 77.115,102.897 76.422,103.411C76.304,103.499 76.181,103.584 76.055,103.668C75.924,103.755 75.788,103.84 75.649,103.923C75.455,104.039 75.254,104.152 75.049,104.262C74.717,104.439 74.373,104.608 74.021,104.772C73.569,104.982 73.103,105.182 72.63,105.374C72.027,105.62 71.412,105.853 70.787,106.078C70.002,106.361 69.204,106.631 68.397,106.892C67.393,107.217 66.375,107.526 65.35,107.828L65.025,107.923C64.908,107.952 64.88,107.963 64.756,107.98C64.57,108.007 64.374,108.008 64.186,107.984C64.061,107.969 64.033,107.959 63.915,107.931C63.677,107.866 63.439,107.802 63.2,107.74C62.237,107.495 61.254,107.278 60.242,107.112C58.82,106.879 57.349,106.749 55.871,106.769C55.058,106.78 54.248,106.836 53.451,106.932C52.599,107.034 51.764,107.18 50.947,107.355C49.306,107.705 47.74,108.166 46.19,108.636L46.069,108.669C45.957,108.691 45.93,108.699 45.813,108.71C45.594,108.732 45.366,108.719 45.158,108.674C45.046,108.65 45.022,108.639 44.919,108.605C44.455,108.433 43.992,108.26 43.531,108.085C42.44,107.667 41.359,107.239 40.309,106.785C39.505,106.438 38.717,106.076 37.969,105.687C37.405,105.394 36.86,105.084 36.376,104.744C35.999,104.478 35.656,104.192 35.409,103.876C35.269,103.696 35.161,103.507 35.105,103.311C35.062,103.164 35.049,103.014 35.07,102.865C35.084,102.761 35.115,102.659 35.162,102.559C35.198,102.481 35.243,102.406 35.297,102.332C35.621,101.891 36.239,101.564 36.899,101.298C37.099,101.217 37.304,101.141 37.51,101.067C37.661,101.012 37.81,100.952 37.978,100.916C38.105,100.89 38.23,100.88 38.362,100.872L47.228,100.67L67.762,97.883L67.9,97.869L68.039,97.863C68.085,97.865 68.132,97.866 68.178,97.867ZM47.686,102.169C47.568,102.181 47.568,102.181 47.448,102.187L38.797,102.385C38.616,102.451 38.436,102.518 38.262,102.59C38.157,102.634 38.056,102.68 37.958,102.729C37.871,102.774 37.786,102.823 37.718,102.879C37.678,102.911 37.642,102.948 37.636,102.99C37.629,103.041 37.653,103.094 37.681,103.142C37.705,103.185 37.736,103.226 37.77,103.267C37.827,103.336 37.895,103.403 37.967,103.468C38.083,103.571 38.213,103.67 38.348,103.766C38.585,103.932 38.842,104.089 39.107,104.24C39.74,104.6 40.423,104.929 41.121,105.244C41.961,105.624 42.828,105.984 43.706,106.332C44.284,106.561 44.867,106.785 45.453,107.006L45.667,107.086C46.014,106.982 46.363,106.88 46.712,106.779C46.991,106.699 47.271,106.621 47.553,106.543C48.198,106.368 48.847,106.2 49.509,106.049C50.623,105.793 51.768,105.581 52.94,105.441C53.886,105.328 54.847,105.261 55.812,105.248C56.837,105.234 57.864,105.28 58.876,105.378C60.795,105.563 62.642,105.934 64.419,106.395L64.432,106.399C65.256,106.156 66.075,105.906 66.885,105.647C67.587,105.422 68.283,105.19 68.97,104.949C69.98,104.594 70.973,104.219 71.919,103.806C72.628,103.496 73.318,103.164 73.928,102.787C74.182,102.63 74.423,102.464 74.633,102.285C74.778,102.162 74.909,102.032 75.006,101.894C75.09,101.776 75.151,101.649 75.15,101.52C75.148,101.261 74.855,101.045 74.545,100.878C74.492,100.85 74.439,100.823 74.384,100.797C74.307,100.76 74.229,100.725 74.149,100.692C74.041,100.646 73.93,100.603 73.817,100.562C73.69,100.517 73.561,100.473 73.43,100.432C72.826,100.241 72.187,100.089 71.54,99.957C70.41,99.726 69.249,99.555 68.081,99.405L68.063,99.403C61.27,100.325 54.478,101.247 47.686,102.169Z" style="fill-rule:nonzero;"/>
        </g>
        <g transform="matrix(0.596549,0,0,0.748107,87.8016,59.8148)">
            <path d="M41.829,99.751L46.057,109.059L45.026,109.536L41.53,104.325L41.829,99.751Z"/>
        </g>
        <g transform="matrix(0.596549,0,0,0.756651,99.0128,58.8958)">
            <path d="M40.693,96.87L46.032,109.581L44.577,110.265L41.298,104.71L40.26,102.481L40.693,96.87Z"/>
        </g>
        <g transform="matrix(1,0,0,1,69.0926,33.9678)">
            <path d="M35.981,104.157L43.575,105.588L55.376,104.229L66.115,102.241C66.329,101.036 65.812,100.098 64.769,99.353L54.965,102.272L43.575,103.386L35.111,102.241L35.981,104.157Z"/>
        </g>
    </g>
</svg>
