<?xml version="1.0" encoding="UTF-8" standalone="no"?>
<!DOCTYPE svg PUBLIC "-//W3C//DTD SVG 1.1//EN" "http://www.w3.org/Graphics/SVG/1.1/DTD/svg11.dtd">
<svg width="100%" height="100%" viewBox="0 0 32 16" version="1.1" xmlns="http://www.w3.org/2000/svg" xmlns:xlink="http://www.w3.org/1999/xlink" xml:space="preserve" style="fill-rule:evenodd;clip-rule:evenodd;stroke-linejoin:round;stroke-miterlimit:1.41421;">
    <g transform="matrix(1,0,0,1,-32.595,-95.2836)">
        <path d="M44.326,102.463L46.176,102.463L46.176,97.923L48.595,97.923L48.595,102.463L51.34,102.463L53.929,98.834L55.741,100.126L54.074,102.463L62,102.463L62,104.794L54.589,104.794L56.239,106.626L54.509,108.183L51.458,104.794L48.595,104.794L48.595,107.794L46.176,107.794L46.176,104.794L44.58,104.794L41.831,108.644L39.817,107.206L41.539,104.794L35.19,104.794L35.19,102.463L41.316,102.463L39.976,100.135L42.238,98.834L44.326,102.463Z"/>
    </g>
</svg>
